<?xml version="1.0" standalone="no"?>
<!DOCTYPE svg PUBLIC "-//W3C//DTD SVG 20010904//EN"
 "http://www.w3.org/TR/2001/REC-SVG-20010904/DTD/svg10.dtd">
<svg version="1.0" xmlns="http://www.w3.org/2000/svg"
 width="519.000000pt" height="518.000000pt" viewBox="0 0 519.000000 518.000000"
 preserveAspectRatio="xMidYMid meet">

<g transform="translate(0.000000,518.000000) scale(0.100000,-0.100000)"
fill="#4E018F" stroke="none">
<path d="M2481 4078 c-108 -9 -219 -34 -316 -73 -37 -15 -76 -25 -88 -22 -12
3 -53 15 -92 26 -86 26 -155 27 -234 2 -124 -38 -218 -120 -272 -236 -54 -114
-51 -240 8 -367 26 -57 26 -57 9 -109 -17 -53 -41 -174 -52 -262 -5 -41 -10
-51 -36 -65 -91 -50 -271 -177 -320 -226 -31 -31 -68 -80 -82 -108 -100 -200
90 -328 484 -328 l138 0 43 -57 c60 -80 154 -172 241 -236 205 -152 416 -221
673 -221 319 1 585 112 812 339 177 178 282 382 320 620 8 55 17 109 19 120 3
13 38 39 101 75 282 160 408 330 341 460 -56 110 -218 160 -514 160 l-121 0
-28 42 c-15 22 -65 81 -112 129 -240 249 -563 367 -922 337z m262 -114 c34 -6
41 -12 59 -53 31 -71 94 -266 116 -362 43 -180 78 -457 70 -563 l-3 -49 -90
-29 c-468 -147 -999 -258 -1241 -258 l-62 0 -17 68 c-26 100 -31 268 -11 382
17 97 34 160 43 160 3 0 18 -9 34 -20 89 -64 264 -84 374 -42 265 100 363 415
203 650 -17 24 -28 45 -26 48 19 18 185 63 293 78 38 5 207 -1 258 -10z m-741
-76 c68 -32 123 -87 157 -158 37 -79 36 -185 -3 -263 -98 -201 -362 -245 -514
-86 -164 170 -97 441 128 523 63 23 161 16 232 -16z m1773 -457 c70 -23 70
-41 0 -108 -32 -30 -65 -53 -74 -51 -16 3 -85 164 -76 178 7 11 92 0 150 -19z
m-2316 -685 c6 -48 9 -91 6 -94 -8 -9 -142 16 -165 30 -24 16 -25 22 -3 55 22
33 134 116 143 106 4 -4 12 -48 19 -97z m1528 18 c-3 -31 -9 -60 -14 -64 -12
-12 -192 -67 -359 -111 -560 -146 -1087 -204 -1350 -150 -179 37 -211 83 -134
190 l31 43 37 -40 c24 -25 59 -47 97 -62 108 -41 410 -39 695 6 192 30 571
118 770 180 113 34 211 63 219 64 11 0 13 -12 8 -56z m-27 -218 c0 -78 -71
-351 -136 -520 -44 -115 -42 -114 -188 -122 -237 -14 -503 74 -697 232 -73 60
-169 157 -169 173 0 10 7 11 210 36 217 27 609 114 870 194 118 36 110 36 110
7z"/>
<path d="M929 1486 c-127 -34 -202 -122 -235 -275 -33 -159 2 -292 102 -379
74 -66 138 -86 269 -87 135 0 185 16 244 80 48 52 51 76 14 104 -32 26 -54 21
-105 -25 -119 -107 -340 -49 -392 103 -33 98 -6 260 52 316 42 41 121 67 199
67 65 0 67 -1 109 -44 51 -53 77 -63 109 -42 37 25 32 59 -17 112 -64 70 -100
84 -210 83 -51 0 -114 -6 -139 -13z"/>
<path d="M2670 1487 c-13 -7 -27 -23 -31 -37 -4 -14 -7 -169 -8 -345 -1 -360
0 -365 64 -365 64 0 65 4 64 277 0 135 2 247 4 250 2 2 16 -31 31 -74 54 -155
117 -309 152 -370 30 -55 39 -63 64 -63 41 0 74 17 93 49 9 15 45 114 82 220
98 289 94 289 95 6 0 -276 3 -288 65 -293 22 -2 48 3 58 11 17 12 18 20 6 117
-8 73 -10 178 -5 342 l7 237 -38 25 c-46 32 -70 33 -114 3 -41 -27 -75 -106
-171 -389 -35 -104 -66 -188 -69 -188 -10 0 -33 60 -111 289 -77 226 -97 272
-130 295 -27 19 -74 20 -108 3z"/>
<path d="M1602 1242 c-67 -24 -85 -42 -122 -115 -36 -71 -39 -140 -12 -226 64
-206 355 -218 458 -20 8 16 17 64 21 107 7 90 -11 145 -65 198 -67 68 -182 91
-280 56z m156 -93 c65 -23 97 -173 52 -246 -51 -85 -190 -84 -226 2 -31 75 -6
201 47 239 27 18 82 21 127 5z"/>
<path d="M2210 1247 c-72 -17 -94 -30 -119 -71 -61 -98 10 -188 183 -232 117
-29 138 -73 50 -102 -60 -20 -112 -7 -155 39 -54 58 -109 51 -109 -15 0 -45
75 -112 135 -122 119 -17 237 16 275 79 22 35 26 97 10 128 -16 28 -79 65
-146 85 -33 9 -81 25 -107 37 -57 24 -59 44 -6 70 48 23 119 11 160 -29 28
-27 31 -28 57 -13 77 43 0 142 -119 153 -30 3 -79 0 -109 -7z"/>
<path d="M3716 1240 c-61 -24 -91 -52 -123 -113 -35 -71 -40 -131 -15 -214 23
-74 57 -115 127 -152 52 -27 153 -28 210 -2 52 24 121 99 134 147 18 66 14
179 -9 223 -55 108 -202 158 -324 111z m171 -100 c25 -15 36 -32 48 -74 24
-81 13 -140 -35 -188 -34 -34 -43 -38 -90 -38 -45 0 -56 4 -84 33 -65 64 -55
211 18 269 29 24 102 23 143 -2z"/>
<path d="M4355 1254 c-81 -19 -106 -29 -129 -53 -37 -39 -47 -72 -34 -118 16
-60 64 -97 172 -133 102 -33 137 -60 120 -88 -14 -22 -68 -33 -123 -26 -33 4
-52 15 -82 45 -42 43 -54 46 -87 23 -36 -25 -28 -61 22 -109 49 -48 75 -55
190 -55 94 0 138 18 174 70 26 39 30 105 7 137 -20 29 -111 80 -177 99 -75 23
-108 42 -108 63 0 59 130 63 190 6 22 -21 34 -25 52 -20 65 21 44 101 -38 144
-25 12 -119 22 -149 15z"/>
</g>
</svg>
