<?xml version="1.0" standalone="no"?>
<!DOCTYPE svg PUBLIC "-//W3C//DTD SVG 20010904//EN"
 "http://www.w3.org/TR/2001/REC-SVG-20010904/DTD/svg10.dtd">
<svg version="1.0" xmlns="http://www.w3.org/2000/svg"
 width="338.000000pt" height="281.000000pt" viewBox="0 0 338.000000 281.000000"
 preserveAspectRatio="xMidYMid meet">

<g transform="translate(0.000000,281.000000) scale(0.100000,-0.100000)"
fill="#4E018F" stroke="none">
<path d="M1571 2528 c-108 -9 -219 -34 -316 -73 -37 -15 -76 -25 -88 -22 -12
3 -53 15 -92 26 -86 26 -155 27 -234 2 -124 -38 -218 -120 -272 -236 -54 -114
-51 -240 8 -367 26 -57 26 -57 9 -109 -17 -53 -41 -174 -52 -262 -5 -41 -10
-51 -36 -65 -91 -50 -271 -177 -320 -226 -31 -31 -68 -80 -82 -108 -100 -200
90 -328 484 -328 l138 0 43 -57 c60 -80 154 -172 241 -236 205 -152 416 -221
673 -221 319 1 585 112 812 339 177 178 282 382 320 620 8 55 17 109 19 120 3
13 38 39 101 75 282 160 408 330 341 460 -56 110 -218 160 -514 160 l-121 0
-28 42 c-15 22 -65 81 -112 129 -240 249 -563 367 -922 337z m262 -114 c34 -6
41 -12 59 -53 31 -71 94 -266 116 -362 43 -180 78 -457 70 -563 l-3 -49 -90
-29 c-468 -147 -999 -258 -1241 -258 l-62 0 -17 67 c-26 101 -31 269 -11 383
17 97 34 160 43 160 3 0 18 -9 34 -20 89 -64 264 -84 374 -42 265 100 363 415
203 650 -17 24 -28 45 -26 48 19 18 185 63 293 78 38 5 207 -1 258 -10z m-741
-76 c68 -32 123 -87 157 -158 37 -79 36 -185 -3 -263 -98 -201 -362 -245 -514
-86 -164 170 -97 441 128 523 63 23 161 16 232 -16z m1773 -457 c70 -23 70
-41 0 -108 -32 -30 -65 -53 -74 -51 -16 3 -85 164 -76 178 7 11 92 0 150 -19z
m-2316 -685 c6 -48 9 -91 6 -94 -8 -9 -142 16 -165 30 -24 16 -25 22 -3 55 22
33 134 116 143 106 4 -4 12 -48 19 -97z m1528 18 c-3 -31 -9 -60 -14 -64 -12
-12 -192 -67 -359 -111 -560 -146 -1087 -204 -1350 -150 -179 37 -211 83 -134
190 l31 43 37 -40 c24 -25 59 -47 97 -62 108 -41 410 -39 695 6 192 30 571
118 770 180 113 34 211 63 219 64 11 0 13 -12 8 -56z m-27 -218 c0 -78 -71
-351 -136 -520 -44 -115 -42 -114 -188 -122 -237 -14 -503 74 -697 232 -73 60
-169 157 -169 173 0 10 7 11 210 36 217 27 609 114 870 194 118 36 110 36 110
7z"/>
</g>
</svg>
